# xmcd
#
# Track frame offsets:
#	150
#	19022
#	37375
#	51120
#	65136
#	78038
#	93677
#	114105
#	128867
#	142483
#	159361
#	175317
#	189495
#	203670
#	219746
#	236120
#	248313
#	261543
#	277515
#	290394
#
# Disc length: 4122 seconds
#
# Revision: 0
# Processed by: cddbd v1.5.2PL0 Copyright (c) Steve Scherf et al.
# Submitted via: EasyCDDAExtractor 16.0.6.1
#
DISCID=27101814
DTITLE=Συλλογικός δίσκος - Τα ρεμπέτικα Α 1850-1922 03 Α
DYEAR=2010
DGENRE=Ρεμπέτικη
TTITLE0=Καραπιπέρης Μανώλης - Αϊβαλιώτικο [ζεϊμπέκικο, Νέα Υόρκη 29.4.1929]
TTITLE1=Νικολάου Τάκης - Τα σπερματσέττα [ζεϊμπ., Αντ. Σακελλαρίου-Ρήγας, Ν. Υ
TTITLE1=όρκη 25.4.1927]
TTITLE2=Διαμαντίδης Αντώνης ή Νταλγκάς - Καλογεράκι-Ντουντού [λαϊκό ασμα, Αθήν
TTITLE2=α 1931]
TTITLE3=Παπαγκίκα Μαρίκα - Λαγώς (Λαγός)[ζεϊμπ., Νέα Υόρκη 1923]
TTITLE4=Μενεμενλής Λευτέρης - Ταμπαχανιώτικο μανέ [ΚΠολη 2.1911]
TTITLE5=Σμυρνιός Λεωνίδας - Η χήρα [Νέα Υόρκη 11.4.1927]
TTITLE6=Κατσαρός Γιώργος - Χτες το βράδυ στου Γκαρίπη [ζεϊμπ., Νέα Υόρκη 4.193
TTITLE6=5]
TTITLE7=Διαμαντίδης Αντώνης ή Νταλγκάς - Καροτσιέρης [χασάπικος, Αθήνα 1927]
TTITLE8=Πιπίνα κυρία - Οι ψαράδες [ΚΠολη 1929]
TTITLE9=Κουρούκλη Λίζα - Το σιγαρέττο [Αντ. Βώττης-Πολύβιος Δημητρ/λος, Ν. Υόρ
TTITLE9=κη 1928]
TTITLE10=Παπαγκίκα Μαρίκα - Ντερβίσης [ζεϊμπ., απτάλικος, Ν. Υόρκη 1927]
TTITLE11=Γαδ Πωλ (Λεοπόλδος) - Το απάχικο [τραγούδι, ΚΠολη 30.9.1927]
TTITLE12=Διαμαντίδης Αντώνης ή Νταλγκάς - Μάγκας [ρεμπέτ., χασάπικος, Αθήνα 19
TTITLE12=28]
TTITLE13=Σωφρονίου Ευάγγελος - Μανές τζιβαέρι [Αθήνα 1927]
TTITLE14=Παπαγκίκα Μαρίκα - Ελενάκι [καρσιλαμάς, Ν. Υόρκη 6.1926]
TTITLE15=Βιδάλης Γιώργος - Το χασίσι [καρσιλαμάς χορός, Αθήνα 1924]
TTITLE16=Ατραΐδης Δημήτρης - Κακούργα μάγισσα [Παν. Βαϊνδιρλής, Αθήνα 1929]
TTITLE17=Διαμαντίδης Αντώνης ή Νταλγκάς - Ούζο [λαϊκό τραγ., Αθήνα 1928]
TTITLE18=Διαμαντίδης Αντώνης ή Νταλγκάς - Τα παιδιά της γειτονιάς σου [αγριλαμ
TTITLE18=άς, Αθήνα 1930]
TTITLE19=Κωστής Α. - Κάηκε ένα σχολείο [Αθήνα 1930]
EXTD=
EXTT0=
EXTT1=
EXTT2=
EXTT3=
EXTT4=
EXTT5=
EXTT6=
EXTT7=
EXTT8=
EXTT9=
EXTT10=
EXTT11=
EXTT12=
EXTT13=
EXTT14=
EXTT15=
EXTT16=
EXTT17=
EXTT18=
EXTT19=
PLAYORDER=
